<?xml version="1.0" encoding="UTF-8"?>
<!DOCTYPE svg PUBLIC "-//W3C//DTD SVG 1.0//EN" "http://www.w3.org/TR/2001/REC-SVG-20010904/DTD/svg10.dtd">
<svg xmlns:xlink="http://www.w3.org/1999/xlink" xmlns="http://www.w3.org/2000/svg" fill-opacity="0" color-rendering="auto" color-interpolation="auto" text-rendering="auto" stroke="rgb(0,0,0)" stroke-linecap="square" width="1212" stroke-miterlimit="10" shape-rendering="auto" stroke-opacity="0" fill="rgb(0,0,0)" stroke-dasharray="none" font-weight="normal" stroke-width="1" height="402" font-family="'Dialog'" font-style="normal" stroke-linejoin="miter" font-size="12px" stroke-dashoffset="0" image-rendering="auto" style="background-color:transparent;">
  <!--Generated by the Batik Graphics2D SVG Generator-->
  <defs id="genericDefs"/>
  <g>
    <defs id="defs1">
      <clipPath clipPathUnits="userSpaceOnUse" id="clipPath1">
        <path d="M-7 -7 L372 -7 L372 104 L-7 104 L-7 -7 Z"/>
      </clipPath>
      <clipPath clipPathUnits="userSpaceOnUse" id="clipPath2">
        <path d="M0 0 L0 63 L361 63 L361 0 Z"/>
      </clipPath>
      <clipPath clipPathUnits="userSpaceOnUse" id="clipPath3">
        <path d="M0 0 L0 30 L361 30 L361 0 Z"/>
      </clipPath>
      <clipPath clipPathUnits="userSpaceOnUse" id="clipPath4">
        <path d="M-7 -7 L376 -7 L376 83 L-7 83 L-7 -7 Z"/>
      </clipPath>
      <clipPath clipPathUnits="userSpaceOnUse" id="clipPath5">
        <path d="M0 0 L0 57 L365 57 L365 0 Z"/>
      </clipPath>
      <clipPath clipPathUnits="userSpaceOnUse" id="clipPath6">
        <path d="M0 0 L0 15 L365 15 L365 0 Z"/>
      </clipPath>
      <clipPath clipPathUnits="userSpaceOnUse" id="clipPath7">
        <path d="M-7 -7 L369 -7 L369 83 L-7 83 L-7 -7 Z"/>
      </clipPath>
      <clipPath clipPathUnits="userSpaceOnUse" id="clipPath8">
        <path d="M0 0 L0 57 L358 57 L358 0 Z"/>
      </clipPath>
      <clipPath clipPathUnits="userSpaceOnUse" id="clipPath9">
        <path d="M0 0 L0 15 L358 15 L358 0 Z"/>
      </clipPath>
      <clipPath clipPathUnits="userSpaceOnUse" id="clipPath10">
        <path d="M-7 -7 L370 -7 L370 83 L-7 83 L-7 -7 Z"/>
      </clipPath>
      <clipPath clipPathUnits="userSpaceOnUse" id="clipPath11">
        <path d="M0 0 L0 57 L359 57 L359 0 Z"/>
      </clipPath>
      <clipPath clipPathUnits="userSpaceOnUse" id="clipPath12">
        <path d="M0 0 L0 15 L359 15 L359 0 Z"/>
      </clipPath>
      <clipPath clipPathUnits="userSpaceOnUse" id="clipPath13">
        <path d="M-7 -7 L290 -7 L290 83 L-7 83 L-7 -7 Z"/>
      </clipPath>
      <clipPath clipPathUnits="userSpaceOnUse" id="clipPath14">
        <path d="M0 0 L0 57 L279 57 L279 0 Z"/>
      </clipPath>
      <clipPath clipPathUnits="userSpaceOnUse" id="clipPath15">
        <path d="M0 0 L0 15 L279 15 L279 0 Z"/>
      </clipPath>
      <clipPath clipPathUnits="userSpaceOnUse" id="clipPath16">
        <path d="M-7 -7 L377 -7 L377 83 L-7 83 L-7 -7 Z"/>
      </clipPath>
      <clipPath clipPathUnits="userSpaceOnUse" id="clipPath17">
        <path d="M0 0 L0 57 L366 57 L366 0 Z"/>
      </clipPath>
      <clipPath clipPathUnits="userSpaceOnUse" id="clipPath18">
        <path d="M0 0 L0 15 L366 15 L366 0 Z"/>
      </clipPath>
      <clipPath clipPathUnits="userSpaceOnUse" id="clipPath19">
        <path d="M0 0 L186 0 L186 209 L0 209 L0 0 Z"/>
      </clipPath>
      <clipPath clipPathUnits="userSpaceOnUse" id="clipPath20">
        <path d="M0 0 L0 209 L186 209 L186 0 Z"/>
      </clipPath>
      <clipPath clipPathUnits="userSpaceOnUse" id="clipPath21">
        <path d="M0 0 L104 0 L104 333 L0 333 L0 0 Z"/>
      </clipPath>
      <clipPath clipPathUnits="userSpaceOnUse" id="clipPath22">
        <path d="M0 0 L0 333 L104 333 L104 0 Z"/>
      </clipPath>
      <clipPath clipPathUnits="userSpaceOnUse" id="clipPath23">
        <path d="M0 0 L219 0 L219 104 L0 104 L0 0 Z"/>
      </clipPath>
      <clipPath clipPathUnits="userSpaceOnUse" id="clipPath24">
        <path d="M0 0 L0 104 L219 104 L219 0 Z"/>
      </clipPath>
      <clipPath clipPathUnits="userSpaceOnUse" id="clipPath25">
        <path d="M0 0 L134 0 L134 209 L0 209 L0 0 Z"/>
      </clipPath>
      <clipPath clipPathUnits="userSpaceOnUse" id="clipPath26">
        <path d="M0 0 L0 209 L134 209 L134 0 Z"/>
      </clipPath>
    </defs>
    <g fill="none" text-rendering="geometricPrecision" fill-opacity="1" stroke-opacity="1" stroke="white">
      <rect x="0" width="1212" height="402" y="0" stroke="none" fill="none"/>
    </g>
    <g fill-opacity="1" text-rendering="geometricPrecision" stroke="black" stroke-linecap="butt" transform="translate(398,2)" stroke-miterlimit="0" stroke-opacity="1" fill="black" font-weight="bold" font-family="sans-serif" stroke-linejoin="round" font-size="11px" image-rendering="optimizeQuality">
      <rect fill="none" x="0" width="361" height="93" y="0" clip-path="url(#clipPath1)"/>
      <line y2="30" fill="none" x1="0" clip-path="url(#clipPath1)" x2="361" y1="30"/>
    </g>
    <g font-size="11px" transform="matrix(1,0,0,1,398,32)" fill-opacity="1" fill="black" text-rendering="geometricPrecision" image-rendering="optimizeQuality" font-family="sans-serif" stroke="black" stroke-opacity="1">
      <text x="2" xml:space="preserve" y="14" clip-path="url(#clipPath2)" stroke="none">+onSoftwareEvent(CurrentState : State**, event : menu_event_t) : void</text>
    </g>
    <g font-size="11px" transform="matrix(1,0,0,1,398,32)" fill-opacity="1" fill="black" text-rendering="geometricPrecision" image-rendering="optimizeQuality" font-family="sans-serif" stroke="black" stroke-opacity="1">
      <text x="2" xml:space="preserve" y="29" clip-path="url(#clipPath2)" stroke="none">+onHardwareEvent(CurrentState : State**, event : button_event_t) : void</text>
    </g>
    <g font-size="11px" transform="translate(398,2)" fill-opacity="1" fill="black" text-rendering="geometricPrecision" image-rendering="optimizeQuality" font-family="sans-serif" stroke="black" stroke-opacity="1">
      <text x="145" xml:space="preserve" y="12" clip-path="url(#clipPath3)" stroke="none">&lt;&lt;Interface&gt;&gt;</text>
      <text x="166" xml:space="preserve" y="27" clip-path="url(#clipPath3)" font-weight="bold" stroke="none">State</text>
    </g>
    <g fill-opacity="1" text-rendering="geometricPrecision" stroke="black" stroke-linecap="butt" transform="translate(843,202)" stroke-miterlimit="0" stroke-opacity="1" fill="black" font-weight="bold" font-family="sans-serif" stroke-linejoin="round" font-size="11px" image-rendering="optimizeQuality">
      <rect fill="none" x="0" width="365" height="72" y="0" clip-path="url(#clipPath4)"/>
      <line y2="15" fill="none" x1="0" clip-path="url(#clipPath4)" x2="365" y1="15"/>
    </g>
    <g font-size="11px" transform="matrix(1,0,0,1,843,217)" fill-opacity="1" fill="black" text-rendering="geometricPrecision" image-rendering="optimizeQuality" font-family="sans-serif" stroke="black" stroke-opacity="1">
      <text x="2" xml:space="preserve" y="14" clip-path="url(#clipPath5)" stroke="none">+onSoftwareEvent(CurrentState : State**, event : menu_event_t) : void</text>
    </g>
    <g font-size="11px" transform="matrix(1,0,0,1,843,217)" fill-opacity="1" fill="black" text-rendering="geometricPrecision" image-rendering="optimizeQuality" font-family="sans-serif" stroke="black" stroke-opacity="1">
      <text x="2" xml:space="preserve" y="29" clip-path="url(#clipPath5)" stroke="none">+onHardwareEvent(CurrentState : State**, event : button_event_t) : void</text>
    </g>
    <g font-size="11px" transform="translate(843,202)" fill-opacity="1" fill="black" text-rendering="geometricPrecision" image-rendering="optimizeQuality" font-family="sans-serif" stroke="black" font-weight="bold" stroke-opacity="1">
      <text x="113" xml:space="preserve" y="12" clip-path="url(#clipPath6)" stroke="none">Struct State_Options_Edit</text>
    </g>
    <g fill-opacity="1" text-rendering="geometricPrecision" stroke="black" stroke-linecap="butt" transform="translate(589,326)" stroke-miterlimit="0" stroke-opacity="1" fill="black" font-weight="bold" font-family="sans-serif" stroke-linejoin="round" font-size="11px" image-rendering="optimizeQuality">
      <rect fill="none" x="0" width="358" height="72" y="0" clip-path="url(#clipPath7)"/>
      <line y2="15" fill="none" x1="0" clip-path="url(#clipPath7)" x2="358" y1="15"/>
    </g>
    <g font-size="11px" transform="matrix(1,0,0,1,589,341)" fill-opacity="1" fill="black" text-rendering="geometricPrecision" image-rendering="optimizeQuality" font-family="sans-serif" stroke="black" stroke-opacity="1">
      <text x="2" xml:space="preserve" y="14" clip-path="url(#clipPath8)" stroke="none">+onSoftwareEvent(CurrentState : State**, event : menu_event_t) : void</text>
    </g>
    <g font-size="11px" transform="matrix(1,0,0,1,589,341)" fill-opacity="1" fill="black" text-rendering="geometricPrecision" image-rendering="optimizeQuality" font-family="sans-serif" stroke="black" stroke-opacity="1">
      <text x="2" xml:space="preserve" y="29" clip-path="url(#clipPath8)" stroke="none">+onHardwareEvent(CurrentState : State**, event : button_event_t) : void</text>
    </g>
    <g font-size="11px" transform="translate(589,326)" fill-opacity="1" fill="black" text-rendering="geometricPrecision" image-rendering="optimizeQuality" font-family="sans-serif" stroke="black" font-weight="bold" stroke-opacity="1">
      <text x="112" xml:space="preserve" y="12" clip-path="url(#clipPath9)" stroke="none">Struct State_Options_Nav</text>
    </g>
    <g fill-opacity="1" text-rendering="geometricPrecision" stroke="black" stroke-linecap="butt" transform="translate(205,326)" stroke-miterlimit="0" stroke-opacity="1" fill="black" font-weight="bold" font-family="sans-serif" stroke-linejoin="round" font-size="11px" image-rendering="optimizeQuality">
      <rect fill="none" x="0" width="359" height="72" y="0" clip-path="url(#clipPath10)"/>
      <line y2="15" fill="none" x1="0" clip-path="url(#clipPath10)" x2="359" y1="15"/>
    </g>
    <g font-size="11px" transform="matrix(1,0,0,1,205,341)" fill-opacity="1" fill="black" text-rendering="geometricPrecision" image-rendering="optimizeQuality" font-family="sans-serif" stroke="black" stroke-opacity="1">
      <text x="2" xml:space="preserve" y="14" clip-path="url(#clipPath11)" stroke="none">+onSoftwareEvent(CurrentState : State**, event : menu_event_t) : void</text>
    </g>
    <g font-size="11px" transform="matrix(1,0,0,1,205,341)" fill-opacity="1" fill="black" text-rendering="geometricPrecision" image-rendering="optimizeQuality" font-family="sans-serif" stroke="black" stroke-opacity="1">
      <text x="2" xml:space="preserve" y="29" clip-path="url(#clipPath11)" stroke="none">+onHardwareEvent(CurrentState : State**, event : button_event_t) : void</text>
    </g>
    <g font-size="11px" transform="translate(205,326)" fill-opacity="1" fill="black" text-rendering="geometricPrecision" image-rendering="optimizeQuality" font-family="sans-serif" stroke="black" font-weight="bold" stroke-opacity="1">
      <text x="108" xml:space="preserve" y="12" clip-path="url(#clipPath12)" stroke="none">Struct State_Standard_Nav</text>
    </g>
    <g fill-opacity="1" text-rendering="geometricPrecision" stroke="black" stroke-linecap="butt" transform="translate(2,12)" stroke-miterlimit="0" stroke-opacity="1" fill="black" font-weight="bold" font-family="sans-serif" stroke-linejoin="round" font-size="11px" image-rendering="optimizeQuality">
      <rect fill="none" x="0" width="279" height="72" y="0" clip-path="url(#clipPath13)"/>
      <line y2="15" fill="none" x1="0" clip-path="url(#clipPath13)" x2="279" y1="15"/>
    </g>
    <g font-size="11px" transform="matrix(1,0,0,1,2,27)" fill-opacity="1" fill="black" text-rendering="geometricPrecision" image-rendering="optimizeQuality" font-family="sans-serif" stroke="black" stroke-opacity="1">
      <text x="2" xml:space="preserve" y="14" clip-path="url(#clipPath14)" stroke="none">-CurrentState : State*</text>
    </g>
    <g stroke-linecap="butt" font-size="11px" transform="matrix(1,0,0,1,2,27)" fill-opacity="1" fill="black" text-rendering="geometricPrecision" image-rendering="optimizeQuality" font-family="sans-serif" stroke-linejoin="bevel" stroke="black" stroke-opacity="1" stroke-miterlimit="0">
      <line y2="19" fill="none" x1="0" clip-path="url(#clipPath14)" x2="279" y1="19"/>
    </g>
    <g font-size="11px" transform="matrix(1,0,0,1,2,27)" fill-opacity="1" fill="black" text-rendering="geometricPrecision" image-rendering="optimizeQuality" font-family="sans-serif" stroke="black" stroke-opacity="1">
      <text x="2" xml:space="preserve" y="33" clip-path="url(#clipPath14)" stroke="none">+FSM_OnSoftwareEvent(event : menu_event_t) : void</text>
    </g>
    <g font-size="11px" transform="matrix(1,0,0,1,2,27)" fill-opacity="1" fill="black" text-rendering="geometricPrecision" image-rendering="optimizeQuality" font-family="sans-serif" stroke="black" stroke-opacity="1">
      <text x="2" xml:space="preserve" y="48" clip-path="url(#clipPath14)" stroke="none">+FSM_OnHardwareEvent(event : button_event_t) : void</text>
    </g>
    <g font-size="11px" transform="translate(2,12)" fill-opacity="1" fill="black" text-rendering="geometricPrecision" image-rendering="optimizeQuality" font-family="sans-serif" stroke="black" font-weight="bold" stroke-opacity="1">
      <text x="127" xml:space="preserve" y="12" clip-path="url(#clipPath15)" stroke="none">FSM</text>
    </g>
    <g fill-opacity="1" text-rendering="geometricPrecision" stroke="black" stroke-linecap="butt" transform="translate(2,202)" stroke-miterlimit="0" stroke-opacity="1" fill="black" font-weight="bold" font-family="sans-serif" stroke-linejoin="round" font-size="11px" image-rendering="optimizeQuality">
      <rect fill="none" x="0" width="366" height="72" y="0" clip-path="url(#clipPath16)"/>
      <line y2="15" fill="none" x1="0" clip-path="url(#clipPath16)" x2="366" y1="15"/>
    </g>
    <g font-size="11px" transform="matrix(1,0,0,1,2,217)" fill-opacity="1" fill="black" text-rendering="geometricPrecision" image-rendering="optimizeQuality" font-family="sans-serif" stroke="black" stroke-opacity="1">
      <text x="2" xml:space="preserve" y="14" clip-path="url(#clipPath17)" stroke="none">+onSoftwareEvent(CurrentState : State**, event : menu_event_t) : void</text>
    </g>
    <g font-size="11px" transform="matrix(1,0,0,1,2,217)" fill-opacity="1" fill="black" text-rendering="geometricPrecision" image-rendering="optimizeQuality" font-family="sans-serif" stroke="black" stroke-opacity="1">
      <text x="2" xml:space="preserve" y="29" clip-path="url(#clipPath17)" stroke="none">+onHardwareEvent(CurrentState : State**, event : button_event_t) : void</text>
    </g>
    <g font-size="11px" transform="translate(2,202)" fill-opacity="1" fill="black" text-rendering="geometricPrecision" image-rendering="optimizeQuality" font-family="sans-serif" stroke="black" font-weight="bold" stroke-opacity="1">
      <text x="116" xml:space="preserve" y="12" clip-path="url(#clipPath18)" stroke="none">Struct State_Special_Nav</text>
    </g>
    <g fill-opacity="1" text-rendering="geometricPrecision" stroke="black" stroke-linecap="butt" transform="translate(710,46)" stroke-opacity="1" fill="black" stroke-dasharray="5" font-family="sans-serif" stroke-linejoin="round" font-size="11px" stroke-dashoffset="1" image-rendering="optimizeQuality">
      <line y2="155" fill="none" x1="50" clip-path="url(#clipPath20)" x2="132" y1="50"/>
    </g>
    <g stroke-linecap="butt" font-size="11px" transform="translate(710,46)" fill-opacity="1" fill="rgb(122,207,245)" text-rendering="geometricPrecision" image-rendering="optimizeQuality" font-family="sans-serif" stroke-linejoin="round" stroke="rgb(122,207,245)" stroke-opacity="1">
      <polygon points=" 50 50 51 62 61 55" stroke="none" clip-path="url(#clipPath20)"/>
      <polygon fill="none" clip-path="url(#clipPath20)" points=" 50 50 51 62 61 55" stroke="black"/>
    </g>
    <g fill-opacity="1" text-rendering="geometricPrecision" stroke="black" stroke-linecap="butt" transform="translate(626,46)" stroke-opacity="1" fill="black" stroke-dasharray="5" font-family="sans-serif" stroke-linejoin="round" font-size="11px" stroke-dashoffset="1" image-rendering="optimizeQuality">
      <line y2="279" fill="none" x1="50" clip-path="url(#clipPath22)" x2="50" y1="50"/>
    </g>
    <g stroke-linecap="butt" font-size="11px" transform="translate(626,46)" fill-opacity="1" fill="rgb(122,207,245)" text-rendering="geometricPrecision" image-rendering="optimizeQuality" font-family="sans-serif" stroke-linejoin="round" stroke="rgb(122,207,245)" stroke-opacity="1">
      <polygon points=" 50 50 44 62 56 62" stroke="none" clip-path="url(#clipPath22)"/>
      <polygon fill="none" clip-path="url(#clipPath22)" points=" 50 50 44 62 56 62" stroke="black"/>
    </g>
    <g fill-opacity="1" text-rendering="geometricPrecision" stroke="black" stroke-linecap="butt" transform="translate(232,1)" stroke-opacity="1" fill="black" stroke-dasharray="5" font-family="sans-serif" stroke-linejoin="round" font-size="11px" stroke-dashoffset="1" image-rendering="optimizeQuality">
      <line y2="50" fill="none" x1="50" clip-path="url(#clipPath24)" x2="165" y1="50"/>
      <line clip-path="url(#clipPath24)" stroke-dashoffset="0" fill="none" x1="165" x2="153" y1="50" y2="44" stroke-dasharray="none"/>
      <line clip-path="url(#clipPath24)" stroke-dashoffset="0" fill="none" x1="165" x2="153" y1="50" y2="56" stroke-dasharray="none"/>
    </g>
    <g fill-opacity="1" text-rendering="geometricPrecision" stroke="black" stroke-linecap="butt" transform="translate(401,46)" stroke-opacity="1" fill="black" stroke-dasharray="5" font-family="sans-serif" stroke-linejoin="round" font-size="11px" stroke-dashoffset="1" image-rendering="optimizeQuality">
      <line y2="279" fill="none" x1="50" clip-path="url(#clipPath22)" x2="50" y1="50"/>
    </g>
    <g stroke-linecap="butt" font-size="11px" transform="translate(401,46)" fill-opacity="1" fill="rgb(122,207,245)" text-rendering="geometricPrecision" image-rendering="optimizeQuality" font-family="sans-serif" stroke-linejoin="round" stroke="rgb(122,207,245)" stroke-opacity="1">
      <polygon points=" 50 50 44 62 56 62" stroke="none" clip-path="url(#clipPath22)"/>
      <polygon fill="none" clip-path="url(#clipPath22)" points=" 50 50 44 62 56 62" stroke="black"/>
    </g>
    <g fill-opacity="1" text-rendering="geometricPrecision" stroke="black" stroke-linecap="butt" transform="translate(318,46)" stroke-opacity="1" fill="black" stroke-dasharray="5" font-family="sans-serif" stroke-linejoin="round" font-size="11px" stroke-dashoffset="1" image-rendering="optimizeQuality">
      <line y2="155" fill="none" x1="80" clip-path="url(#clipPath26)" x2="50" y1="50"/>
    </g>
    <g stroke-linecap="butt" font-size="11px" transform="translate(318,46)" fill-opacity="1" fill="rgb(122,207,245)" text-rendering="geometricPrecision" image-rendering="optimizeQuality" font-family="sans-serif" stroke-linejoin="round" stroke="rgb(122,207,245)" stroke-opacity="1">
      <polygon points=" 80 50 71 59 82 62" stroke="none" clip-path="url(#clipPath26)"/>
      <polygon fill="none" clip-path="url(#clipPath26)" points=" 80 50 71 59 82 62" stroke="black"/>
    </g>
  </g>
</svg>
